<?xml version="1.0" encoding="UTF-8" standalone="no"?>
<!DOCTYPE svg PUBLIC "-//W3C//DTD SVG 1.1//EN"
 "http://www.w3.org/Graphics/SVG/1.1/DTD/svg11.dtd">
<!-- Generated by graphviz version 2.36.0 (20140111.2315)
 -->
<!-- Title: models_diagram Pages: 1 -->
<svg width="1300pt" height="608pt"
 viewBox="0.00 0.00 1300.00 608.00" xmlns="http://www.w3.org/2000/svg" xmlns:xlink="http://www.w3.org/1999/xlink">
<g id="graph0" class="graph" transform="scale(1 1) rotate(0) translate(4 604)">
<title>models_diagram</title>
<polygon fill="none" stroke="none" points="-4,4 -4,-604 1296,-604 1296,4 -4,4"/>
<!-- _diagram_info -->
<g id="node1" class="node"><title>_diagram_info</title>
<text text-anchor="start" x="300" y="-555.6" font-family="Times,serif" font-size="13.00">Models diagram</text>
<text text-anchor="start" x="300" y="-541.6" font-family="Times,serif" font-size="13.00">Date: Sep 25 2016 &#45; 15:38</text>
<text text-anchor="start" x="300" y="-527.6" font-family="Times,serif" font-size="13.00">Migration version: 20160925135540</text>
<text text-anchor="start" x="300" y="-513.6" font-family="Times,serif" font-size="13.00">Generated by RailRoady 1.5.1</text>
<text text-anchor="start" x="300" y="-499.6" font-family="Times,serif" font-size="13.00">http://railroady.prestonlee.com</text>
</g>
<!-- Hospitality -->
<g id="node2" class="node"><title>Hospitality</title>
<path fill="none" stroke="black" d="M274,-1C274,-1 494,-1 494,-1 500,-1 506,-7 506,-13 506,-13 506,-125 506,-125 506,-131 500,-137 494,-137 494,-137 274,-137 274,-137 268,-137 262,-131 262,-125 262,-125 262,-13 262,-13 262,-7 268,-1 274,-1"/>
<text text-anchor="middle" x="384" y="-121.8" font-family="Times,serif" font-size="14.00">Hospitality</text>
<polyline fill="none" stroke="black" points="262,-114 506,-114 "/>
<text text-anchor="start" x="270" y="-98.8" font-family="Times,serif" font-size="14.00">id :integer</text>
<text text-anchor="start" x="270" y="-83.8" font-family="Times,serif" font-size="14.00">day :integer</text>
<text text-anchor="start" x="270" y="-68.8" font-family="Times,serif" font-size="14.00">month :integer</text>
<text text-anchor="start" x="270" y="-53.8" font-family="Times,serif" font-size="14.00">year :integer</text>
<text text-anchor="start" x="270" y="-38.8" font-family="Times,serif" font-size="14.00">type_of_hospitality :character varying</text>
<text text-anchor="start" x="270" y="-23.8" font-family="Times,serif" font-size="14.00">created_at :timestamp without time zone</text>
<text text-anchor="start" x="270" y="-8.8" font-family="Times,serif" font-size="14.00">updated_at :timestamp without time zone</text>
</g>
<!-- PersonRole -->
<g id="node3" class="node"><title>PersonRole</title>
<path fill="none" stroke="black" d="M798,-478C798,-478 1018,-478 1018,-478 1024,-478 1030,-484 1030,-490 1030,-490 1030,-572 1030,-572 1030,-578 1024,-584 1018,-584 1018,-584 798,-584 798,-584 792,-584 786,-578 786,-572 786,-572 786,-490 786,-490 786,-484 792,-478 798,-478"/>
<text text-anchor="middle" x="908" y="-568.8" font-family="Times,serif" font-size="14.00">PersonRole</text>
<polyline fill="none" stroke="black" points="786,-561 1030,-561 "/>
<text text-anchor="start" x="794" y="-545.8" font-family="Times,serif" font-size="14.00">id :integer</text>
<text text-anchor="start" x="794" y="-530.8" font-family="Times,serif" font-size="14.00">person_id :integer</text>
<text text-anchor="start" x="794" y="-515.8" font-family="Times,serif" font-size="14.00">role_id :integer</text>
<text text-anchor="start" x="794" y="-500.8" font-family="Times,serif" font-size="14.00">created_at :timestamp without time zone</text>
<text text-anchor="start" x="794" y="-485.8" font-family="Times,serif" font-size="14.00">updated_at :timestamp without time zone</text>
</g>
<!-- HospitalityPersonRole -->
<g id="node4" class="node"><title>HospitalityPersonRole</title>
<path fill="none" stroke="black" d="M536,-8.5C536,-8.5 756,-8.5 756,-8.5 762,-8.5 768,-14.5 768,-20.5 768,-20.5 768,-117.5 768,-117.5 768,-123.5 762,-129.5 756,-129.5 756,-129.5 536,-129.5 536,-129.5 530,-129.5 524,-123.5 524,-117.5 524,-117.5 524,-20.5 524,-20.5 524,-14.5 530,-8.5 536,-8.5"/>
<text text-anchor="middle" x="646" y="-114.3" font-family="Times,serif" font-size="14.00">HospitalityPersonRole</text>
<polyline fill="none" stroke="black" points="524,-106.5 768,-106.5 "/>
<text text-anchor="start" x="532" y="-91.3" font-family="Times,serif" font-size="14.00">id :integer</text>
<text text-anchor="start" x="532" y="-76.3" font-family="Times,serif" font-size="14.00">hospitality_id :integer</text>
<text text-anchor="start" x="532" y="-61.3" font-family="Times,serif" font-size="14.00">person_id :integer</text>
<text text-anchor="start" x="532" y="-46.3" font-family="Times,serif" font-size="14.00">role_id :integer</text>
<text text-anchor="start" x="532" y="-31.3" font-family="Times,serif" font-size="14.00">created_at :timestamp without time zone</text>
<text text-anchor="start" x="532" y="-16.3" font-family="Times,serif" font-size="14.00">updated_at :timestamp without time zone</text>
</g>
<!-- ApplicationRecord -->
<g id="node5" class="node"><title>ApplicationRecord</title>
<ellipse fill="none" stroke="black" cx="1125" cy="-531" rx="77.0154" ry="18"/>
<text text-anchor="middle" x="1125" y="-527.3" font-family="Times,serif" font-size="14.00">ApplicationRecord</text>
</g>
<!-- MeetingOrganisationPerson -->
<g id="node6" class="node"><title>MeetingOrganisationPerson</title>
<path fill="none" stroke="black" d="M12,-8.5C12,-8.5 232,-8.5 232,-8.5 238,-8.5 244,-14.5 244,-20.5 244,-20.5 244,-117.5 244,-117.5 244,-123.5 238,-129.5 232,-129.5 232,-129.5 12,-129.5 12,-129.5 6,-129.5 0,-123.5 0,-117.5 0,-117.5 0,-20.5 0,-20.5 0,-14.5 6,-8.5 12,-8.5"/>
<text text-anchor="middle" x="122" y="-114.3" font-family="Times,serif" font-size="14.00">MeetingOrganisationPerson</text>
<polyline fill="none" stroke="black" points="0,-106.5 244,-106.5 "/>
<text text-anchor="start" x="8" y="-91.3" font-family="Times,serif" font-size="14.00">id :integer</text>
<text text-anchor="start" x="8" y="-76.3" font-family="Times,serif" font-size="14.00">meeting_id :integer</text>
<text text-anchor="start" x="8" y="-61.3" font-family="Times,serif" font-size="14.00">organisation_id :integer</text>
<text text-anchor="start" x="8" y="-46.3" font-family="Times,serif" font-size="14.00">person_id :integer</text>
<text text-anchor="start" x="8" y="-31.3" font-family="Times,serif" font-size="14.00">created_at :timestamp without time zone</text>
<text text-anchor="start" x="8" y="-16.3" font-family="Times,serif" font-size="14.00">updated_at :timestamp without time zone</text>
</g>
<!-- Role -->
<g id="node7" class="node"><title>Role</title>
<path fill="none" stroke="black" d="M274,-319C274,-319 494,-319 494,-319 500,-319 506,-325 506,-331 506,-331 506,-413 506,-413 506,-419 500,-425 494,-425 494,-425 274,-425 274,-425 268,-425 262,-419 262,-413 262,-413 262,-331 262,-331 262,-325 268,-319 274,-319"/>
<text text-anchor="middle" x="384" y="-409.8" font-family="Times,serif" font-size="14.00">Role</text>
<polyline fill="none" stroke="black" points="262,-402 506,-402 "/>
<text text-anchor="start" x="270" y="-386.8" font-family="Times,serif" font-size="14.00">id :integer</text>
<text text-anchor="start" x="270" y="-371.8" font-family="Times,serif" font-size="14.00">name :character varying</text>
<text text-anchor="start" x="270" y="-356.8" font-family="Times,serif" font-size="14.00">created_at :timestamp without time zone</text>
<text text-anchor="start" x="270" y="-341.8" font-family="Times,serif" font-size="14.00">updated_at :timestamp without time zone</text>
<text text-anchor="start" x="270" y="-326.8" font-family="Times,serif" font-size="14.00">wikipedia_entry :character varying</text>
</g>
<!-- Person -->
<g id="node12" class="node"><title>Person</title>
<path fill="none" stroke="black" d="M536,-175C536,-175 756,-175 756,-175 762,-175 768,-181 768,-187 768,-187 768,-269 768,-269 768,-275 762,-281 756,-281 756,-281 536,-281 536,-281 530,-281 524,-275 524,-269 524,-269 524,-187 524,-187 524,-181 530,-175 536,-175"/>
<text text-anchor="middle" x="646" y="-265.8" font-family="Times,serif" font-size="14.00">Person</text>
<polyline fill="none" stroke="black" points="524,-258 768,-258 "/>
<text text-anchor="start" x="532" y="-242.8" font-family="Times,serif" font-size="14.00">id :integer</text>
<text text-anchor="start" x="532" y="-227.8" font-family="Times,serif" font-size="14.00">name :character varying</text>
<text text-anchor="start" x="532" y="-212.8" font-family="Times,serif" font-size="14.00">wikipedia_entry :character varying</text>
<text text-anchor="start" x="532" y="-197.8" font-family="Times,serif" font-size="14.00">created_at :timestamp without time zone</text>
<text text-anchor="start" x="532" y="-182.8" font-family="Times,serif" font-size="14.00">updated_at :timestamp without time zone</text>
</g>
<!-- Role&#45;&gt;Person -->
<g id="edge1" class="edge"><title>Role&#45;&gt;Person</title>
<path fill="none" stroke="#39f6f4" d="M488.951,-314.118C506.105,-304.821 523.879,-295.188 541.033,-285.891"/>
<polygon fill="#39f6f4" stroke="#39f6f4" points="488.863,-314.166 477.927,-314.974 484.467,-316.548 480.071,-318.931 480.071,-318.931 480.071,-318.931 484.467,-316.548 482.216,-322.887 488.863,-314.166 488.863,-314.166"/>
<polygon fill="#39f6f4" stroke="#39f6f4" points="541.148,-285.828 552.084,-285.019 545.544,-283.445 549.94,-281.063 549.94,-281.063 549.94,-281.063 545.544,-283.445 547.796,-277.107 541.148,-285.828 541.148,-285.828"/>
</g>
<!-- MeetingPersonRole -->
<g id="node8" class="node"><title>MeetingPersonRole</title>
<path fill="none" stroke="black" d="M1060,-8.5C1060,-8.5 1280,-8.5 1280,-8.5 1286,-8.5 1292,-14.5 1292,-20.5 1292,-20.5 1292,-117.5 1292,-117.5 1292,-123.5 1286,-129.5 1280,-129.5 1280,-129.5 1060,-129.5 1060,-129.5 1054,-129.5 1048,-123.5 1048,-117.5 1048,-117.5 1048,-20.5 1048,-20.5 1048,-14.5 1054,-8.5 1060,-8.5"/>
<text text-anchor="middle" x="1170" y="-114.3" font-family="Times,serif" font-size="14.00">MeetingPersonRole</text>
<polyline fill="none" stroke="black" points="1048,-106.5 1292,-106.5 "/>
<text text-anchor="start" x="1056" y="-91.3" font-family="Times,serif" font-size="14.00">id :integer</text>
<text text-anchor="start" x="1056" y="-76.3" font-family="Times,serif" font-size="14.00">meeting_id :integer</text>
<text text-anchor="start" x="1056" y="-61.3" font-family="Times,serif" font-size="14.00">person_id :integer</text>
<text text-anchor="start" x="1056" y="-46.3" font-family="Times,serif" font-size="14.00">role_id :integer</text>
<text text-anchor="start" x="1056" y="-31.3" font-family="Times,serif" font-size="14.00">created_at :timestamp without time zone</text>
<text text-anchor="start" x="1056" y="-16.3" font-family="Times,serif" font-size="14.00">updated_at :timestamp without time zone</text>
</g>
<!-- Organisation -->
<g id="node9" class="node"><title>Organisation</title>
<path fill="none" stroke="black" d="M536,-319C536,-319 756,-319 756,-319 762,-319 768,-325 768,-331 768,-331 768,-413 768,-413 768,-419 762,-425 756,-425 756,-425 536,-425 536,-425 530,-425 524,-419 524,-413 524,-413 524,-331 524,-331 524,-325 530,-319 536,-319"/>
<text text-anchor="middle" x="646" y="-409.8" font-family="Times,serif" font-size="14.00">Organisation</text>
<polyline fill="none" stroke="black" points="524,-402 768,-402 "/>
<text text-anchor="start" x="532" y="-386.8" font-family="Times,serif" font-size="14.00">id :integer</text>
<text text-anchor="start" x="532" y="-371.8" font-family="Times,serif" font-size="14.00">name :character varying</text>
<text text-anchor="start" x="532" y="-356.8" font-family="Times,serif" font-size="14.00">wikipedia_entry :character varying</text>
<text text-anchor="start" x="532" y="-341.8" font-family="Times,serif" font-size="14.00">created_at :timestamp without time zone</text>
<text text-anchor="start" x="532" y="-326.8" font-family="Times,serif" font-size="14.00">updated_at :timestamp without time zone</text>
</g>
<!-- Organisation&#45;&gt;Person -->
<g id="edge2" class="edge"><title>Organisation&#45;&gt;Person</title>
<path fill="none" stroke="#57e77a" d="M646,-308.65C646,-302.894 646,-297.062 646,-291.306"/>
<polygon fill="#57e77a" stroke="#57e77a" points="646,-308.931 641.5,-318.931 646,-313.931 646,-318.931 646,-318.931 646,-318.931 646,-313.931 650.5,-318.931 646,-308.931 646,-308.931"/>
<polygon fill="#57e77a" stroke="#57e77a" points="646,-291.063 650.5,-281.063 646,-286.063 646,-281.063 646,-281.063 646,-281.063 646,-286.063 641.5,-281.063 646,-291.063 646,-291.063"/>
</g>
<!-- Meeting -->
<g id="node10" class="node"><title>Meeting</title>
<path fill="none" stroke="black" d="M536,-463C536,-463 756,-463 756,-463 762,-463 768,-469 768,-475 768,-475 768,-587 768,-587 768,-593 762,-599 756,-599 756,-599 536,-599 536,-599 530,-599 524,-593 524,-587 524,-587 524,-475 524,-475 524,-469 530,-463 536,-463"/>
<text text-anchor="middle" x="646" y="-583.8" font-family="Times,serif" font-size="14.00">Meeting</text>
<polyline fill="none" stroke="black" points="524,-576 768,-576 "/>
<text text-anchor="start" x="532" y="-560.8" font-family="Times,serif" font-size="14.00">id :integer</text>
<text text-anchor="start" x="532" y="-545.8" font-family="Times,serif" font-size="14.00">day :integer</text>
<text text-anchor="start" x="532" y="-530.8" font-family="Times,serif" font-size="14.00">month :integer</text>
<text text-anchor="start" x="532" y="-515.8" font-family="Times,serif" font-size="14.00">year :integer</text>
<text text-anchor="start" x="532" y="-500.8" font-family="Times,serif" font-size="14.00">purpose_of_meeting :character varying</text>
<text text-anchor="start" x="532" y="-485.8" font-family="Times,serif" font-size="14.00">created_at :timestamp without time zone</text>
<text text-anchor="start" x="532" y="-470.8" font-family="Times,serif" font-size="14.00">updated_at :timestamp without time zone</text>
</g>
<!-- Meeting&#45;&gt;MeetingOrganisationPerson -->
<g id="edge6" class="edge"><title>Meeting&#45;&gt;MeetingOrganisationPerson</title>
<path fill="none" stroke="#df373e" d="M516.18,-462.7C515.452,-462.463 514.726,-462.23 514,-462 402.355,-426.682 344.227,-499.415 253,-426 165.7,-355.745 136.577,-221.61 126.863,-139.549"/>
<ellipse fill="none" stroke="#df373e" cx="520.21" cy="-464.078" rx="4.00001" ry="4.00001"/>
<polygon fill="#df373e" stroke="#df373e" points="126.857,-139.499 130.218,-129.061 126.301,-134.53 125.745,-129.561 125.745,-129.561 125.745,-129.561 126.301,-134.53 121.273,-130.061 126.857,-139.499 126.857,-139.499"/>
</g>
<!-- Meeting&#45;&gt;Role -->
<g id="edge5" class="edge"><title>Meeting&#45;&gt;Role</title>
<path fill="none" stroke="#848988" d="M525.176,-457.598C509.884,-448.434 494.405,-439.159 479.581,-430.276"/>
<polygon fill="#848988" stroke="#848988" points="525.551,-457.822 531.815,-466.822 529.84,-460.392 534.128,-462.962 534.128,-462.962 534.128,-462.962 529.84,-460.392 536.442,-459.102 525.551,-457.822 525.551,-457.822"/>
<polygon fill="#848988" stroke="#848988" points="479.513,-430.235 473.248,-421.235 475.224,-427.665 470.935,-425.095 470.935,-425.095 470.935,-425.095 475.224,-427.665 468.622,-428.955 479.513,-430.235 479.513,-430.235"/>
</g>
<!-- Meeting&#45;&gt;MeetingPersonRole -->
<g id="edge3" class="edge"><title>Meeting&#45;&gt;MeetingPersonRole</title>
<path fill="none" stroke="#cbbdf7" d="M756.468,-458.186C771.052,-447.762 785.582,-436.87 799,-426 913.838,-332.967 1035.31,-211.367 1106.81,-137.063"/>
<ellipse fill="none" stroke="#cbbdf7" cx="753.029" cy="-460.626" rx="4.00002" ry="4.00002"/>
<polygon fill="#cbbdf7" stroke="#cbbdf7" points="1107.07,-136.791 1117.24,-132.694 1110.53,-133.184 1113.99,-129.578 1113.99,-129.578 1113.99,-129.578 1110.53,-133.184 1110.75,-126.461 1107.07,-136.791 1107.07,-136.791"/>
</g>
<!-- Meeting&#45;&gt;Organisation -->
<g id="edge7" class="edge"><title>Meeting&#45;&gt;Organisation</title>
<path fill="none" stroke="#94a3f4" d="M646,-452.807C646,-446.937 646,-441.057 646,-435.299"/>
<polygon fill="#94a3f4" stroke="#94a3f4" points="646,-452.962 641.5,-462.962 646,-457.962 646,-462.962 646,-462.962 646,-462.962 646,-457.962 650.5,-462.963 646,-452.962 646,-452.962"/>
<polygon fill="#94a3f4" stroke="#94a3f4" points="646,-435.095 650.5,-425.095 646,-430.095 646,-425.095 646,-425.095 646,-425.095 646,-430.095 641.5,-425.095 646,-435.095 646,-435.095"/>
</g>
<!-- Meeting&#45;&gt;Person -->
<g id="edge4" class="edge"><title>Meeting&#45;&gt;Person</title>
<path fill="none" stroke="#527838" d="M757.713,-455.05C765.334,-446.108 771.97,-436.416 777,-426 797.874,-382.776 799.464,-360.419 777,-318 771.111,-306.88 763.141,-296.891 754.022,-287.985"/>
<polygon fill="#527838" stroke="#527838" points="757.488,-455.299 747.441,-459.695 754.133,-459.006 750.778,-462.714 750.778,-462.714 750.778,-462.714 754.133,-459.006 754.115,-465.733 757.488,-455.299 757.488,-455.299"/>
<polygon fill="#527838" stroke="#527838" points="753.853,-287.829 749.521,-277.755 750.167,-284.451 746.48,-281.073 746.48,-281.073 746.48,-281.073 750.167,-284.451 743.44,-284.391 753.853,-287.829 753.853,-287.829"/>
</g>
<!-- HospitalityOrganisationPerson -->
<g id="node11" class="node"><title>HospitalityOrganisationPerson</title>
<path fill="none" stroke="black" d="M798,-8.5C798,-8.5 1018,-8.5 1018,-8.5 1024,-8.5 1030,-14.5 1030,-20.5 1030,-20.5 1030,-117.5 1030,-117.5 1030,-123.5 1024,-129.5 1018,-129.5 1018,-129.5 798,-129.5 798,-129.5 792,-129.5 786,-123.5 786,-117.5 786,-117.5 786,-20.5 786,-20.5 786,-14.5 792,-8.5 798,-8.5"/>
<text text-anchor="middle" x="908" y="-114.3" font-family="Times,serif" font-size="14.00">HospitalityOrganisationPerson</text>
<polyline fill="none" stroke="black" points="786,-106.5 1030,-106.5 "/>
<text text-anchor="start" x="794" y="-91.3" font-family="Times,serif" font-size="14.00">id :integer</text>
<text text-anchor="start" x="794" y="-76.3" font-family="Times,serif" font-size="14.00">hospitality_id :integer</text>
<text text-anchor="start" x="794" y="-61.3" font-family="Times,serif" font-size="14.00">organisation_id :integer</text>
<text text-anchor="start" x="794" y="-46.3" font-family="Times,serif" font-size="14.00">person_id :integer</text>
<text text-anchor="start" x="794" y="-31.3" font-family="Times,serif" font-size="14.00">created_at :timestamp without time zone</text>
<text text-anchor="start" x="794" y="-16.3" font-family="Times,serif" font-size="14.00">updated_at :timestamp without time zone</text>
</g>
<!-- Person&#45;&gt;Hospitality -->
<g id="edge12" class="edge"><title>Person&#45;&gt;Hospitality</title>
<path fill="none" stroke="#c40617" d="M550.487,-169.765C535.644,-160.871 520.144,-151.583 504.83,-142.406"/>
<polygon fill="#c40617" stroke="#c40617" points="550.544,-169.799 556.809,-178.799 554.833,-172.369 559.122,-174.939 559.122,-174.939 559.122,-174.939 554.833,-172.369 561.435,-171.079 550.544,-169.799 550.544,-169.799"/>
<polygon fill="#c40617" stroke="#c40617" points="504.42,-142.16 498.155,-133.16 500.131,-139.59 495.842,-137.02 495.842,-137.02 495.842,-137.02 500.131,-139.59 493.529,-140.88 504.42,-142.16 504.42,-142.16"/>
</g>
<!-- Person&#45;&gt;HospitalityPersonRole -->
<g id="edge10" class="edge"><title>Person&#45;&gt;HospitalityPersonRole</title>
<path fill="none" stroke="#37bf0d" d="M646,-166.467C646,-157.687 646,-148.591 646,-139.649"/>
<ellipse fill="none" stroke="#37bf0d" cx="646" cy="-170.721" rx="4" ry="4"/>
<polygon fill="#37bf0d" stroke="#37bf0d" points="646,-139.645 650.5,-129.645 646,-134.645 646,-129.645 646,-129.645 646,-129.645 646,-134.645 641.5,-129.645 646,-139.645 646,-139.645"/>
</g>
<!-- Person&#45;&gt;MeetingOrganisationPerson -->
<g id="edge9" class="edge"><title>Person&#45;&gt;MeetingOrganisationPerson</title>
<path fill="none" stroke="#982a2a" d="M515.802,-206.183C438.097,-191.639 338.27,-169.199 253,-138 249.074,-136.564 245.117,-135.034 241.149,-133.43"/>
<ellipse fill="none" stroke="#982a2a" cx="519.795" cy="-206.924" rx="4.00001" ry="4.00001"/>
<polygon fill="#982a2a" stroke="#982a2a" points="241.104,-133.411 233.611,-125.405 236.49,-131.484 231.876,-129.557 231.876,-129.557 231.876,-129.557 236.49,-131.484 230.142,-133.709 241.104,-133.411 241.104,-133.411"/>
</g>
<!-- Person&#45;&gt;MeetingPersonRole -->
<g id="edge8" class="edge"><title>Person&#45;&gt;MeetingPersonRole</title>
<path fill="none" stroke="#837ec1" d="M776.198,-206.183C853.903,-191.639 953.73,-169.199 1039,-138 1042.93,-136.564 1046.88,-135.034 1050.85,-133.43"/>
<ellipse fill="none" stroke="#837ec1" cx="772.205" cy="-206.924" rx="4.00001" ry="4.00001"/>
<polygon fill="#837ec1" stroke="#837ec1" points="1050.9,-133.411 1061.86,-133.709 1055.51,-131.484 1060.12,-129.557 1060.12,-129.557 1060.12,-129.557 1055.51,-131.484 1058.39,-125.405 1050.9,-133.411 1050.9,-133.411"/>
</g>
<!-- Person&#45;&gt;HospitalityOrganisationPerson -->
<g id="edge11" class="edge"><title>Person&#45;&gt;HospitalityOrganisationPerson</title>
<path fill="none" stroke="#d57145" d="M739.764,-170.813C759.243,-159.141 779.92,-146.75 799.867,-134.797"/>
<ellipse fill="none" stroke="#d57145" cx="736.309" cy="-172.883" rx="4.00002" ry="4.00002"/>
<polygon fill="#d57145" stroke="#d57145" points="800.09,-134.663 810.981,-133.383 804.379,-132.093 808.668,-129.523 808.668,-129.523 808.668,-129.523 804.379,-132.093 806.355,-125.663 800.09,-134.663 800.09,-134.663"/>
</g>
</g>
</svg>
