<?xml version="1.0" encoding="UTF-8" standalone="no"?>
<!DOCTYPE svg PUBLIC "-//W3C//DTD SVG 1.1//EN"
 "http://www.w3.org/Graphics/SVG/1.1/DTD/svg11.dtd">
<!-- Generated by graphviz version 2.36.0 (20140111.2315)
 -->
<!-- Title: models_diagram Pages: 1 -->
<svg width="979pt" height="302pt"
 viewBox="0.00 0.00 979.00 302.00" xmlns="http://www.w3.org/2000/svg" xmlns:xlink="http://www.w3.org/1999/xlink">
<g id="graph0" class="graph" transform="scale(1 1) rotate(0) translate(4 298)">
<title>models_diagram</title>
<polygon fill="none" stroke="none" points="-4,4 -4,-298 975,-298 975,4 -4,4"/>
<!-- _diagram_info -->
<g id="node1" class="node"><title>_diagram_info</title>
<text text-anchor="start" x="181" y="-279.6" font-family="Times,serif" font-size="13.00">Models diagram</text>
<text text-anchor="start" x="181" y="-265.6" font-family="Times,serif" font-size="13.00">Date: Sep 25 2016 &#45; 15:38</text>
<text text-anchor="start" x="181" y="-251.6" font-family="Times,serif" font-size="13.00">Migration version: 20160925135540</text>
<text text-anchor="start" x="181" y="-237.6" font-family="Times,serif" font-size="13.00">Generated by RailRoady 1.5.1</text>
<text text-anchor="start" x="181" y="-223.6" font-family="Times,serif" font-size="13.00">http://railroady.prestonlee.com</text>
</g>
<!-- Hospitality -->
<g id="node2" class="node"><title>Hospitality</title>
<ellipse fill="none" stroke="black" cx="287" cy="-18" rx="50.0684" ry="18"/>
<text text-anchor="middle" x="287" y="-14.3" font-family="Times,serif" font-size="14.00">Hospitality</text>
</g>
<!-- PersonRole -->
<g id="node3" class="node"><title>PersonRole</title>
<ellipse fill="none" stroke="black" cx="555" cy="-255" rx="51.0191" ry="18"/>
<text text-anchor="middle" x="555" y="-251.3" font-family="Times,serif" font-size="14.00">PersonRole</text>
</g>
<!-- HospitalityPersonRole -->
<g id="node4" class="node"><title>HospitalityPersonRole</title>
<ellipse fill="none" stroke="black" cx="445" cy="-18" rx="90.0136" ry="18"/>
<text text-anchor="middle" x="445" y="-14.3" font-family="Times,serif" font-size="14.00">HospitalityPersonRole</text>
</g>
<!-- ApplicationRecord -->
<g id="node5" class="node"><title>ApplicationRecord</title>
<ellipse fill="none" stroke="black" cx="702" cy="-255" rx="77.0154" ry="18"/>
<text text-anchor="middle" x="702" y="-251.3" font-family="Times,serif" font-size="14.00">ApplicationRecord</text>
</g>
<!-- MeetingOrganisationPerson -->
<g id="node6" class="node"><title>MeetingOrganisationPerson</title>
<ellipse fill="none" stroke="black" cx="109" cy="-18" rx="109.261" ry="18"/>
<text text-anchor="middle" x="109" y="-14.3" font-family="Times,serif" font-size="14.00">MeetingOrganisationPerson</text>
</g>
<!-- Role -->
<g id="node7" class="node"><title>Role</title>
<ellipse fill="none" stroke="black" cx="344" cy="-162" rx="26.949" ry="18"/>
<text text-anchor="middle" x="344" y="-158.3" font-family="Times,serif" font-size="14.00">Role</text>
</g>
<!-- Person -->
<g id="node12" class="node"><title>Person</title>
<ellipse fill="none" stroke="black" cx="445" cy="-90" rx="34.1708" ry="18"/>
<text text-anchor="middle" x="445" y="-86.3" font-family="Times,serif" font-size="14.00">Person</text>
</g>
<!-- Role&#45;&gt;Person -->
<g id="edge1" class="edge"><title>Role&#45;&gt;Person</title>
<path fill="none" stroke="#4755f0" d="M370.492,-142.639C384.63,-132.84 402.041,-120.774 416.476,-110.769"/>
<polygon fill="#4755f0" stroke="#4755f0" points="370.276,-142.789 359.493,-144.787 366.166,-145.637 362.057,-148.485 362.057,-148.485 362.057,-148.485 366.166,-145.637 364.62,-152.184 370.276,-142.789 370.276,-142.789"/>
<polygon fill="#4755f0" stroke="#4755f0" points="416.804,-110.542 427.586,-108.544 420.914,-107.694 425.023,-104.845 425.023,-104.845 425.023,-104.845 420.914,-107.694 422.46,-101.147 416.804,-110.542 416.804,-110.542"/>
</g>
<!-- MeetingPersonRole -->
<g id="node8" class="node"><title>MeetingPersonRole</title>
<ellipse fill="none" stroke="black" cx="890" cy="-18" rx="81.3646" ry="18"/>
<text text-anchor="middle" x="890" y="-14.3" font-family="Times,serif" font-size="14.00">MeetingPersonRole</text>
</g>
<!-- Organisation -->
<g id="node9" class="node"><title>Organisation</title>
<ellipse fill="none" stroke="black" cx="445" cy="-162" rx="55.3436" ry="18"/>
<text text-anchor="middle" x="445" y="-158.3" font-family="Times,serif" font-size="14.00">Organisation</text>
</g>
<!-- Organisation&#45;&gt;Person -->
<g id="edge2" class="edge"><title>Organisation&#45;&gt;Person</title>
<path fill="none" stroke="#8ca84c" d="M445,-133.665C445,-128.687 445,-123.491 445,-118.507"/>
<polygon fill="#8ca84c" stroke="#8ca84c" points="445,-133.697 440.5,-143.697 445,-138.697 445,-143.697 445,-143.697 445,-143.697 445,-138.697 449.5,-143.697 445,-133.697 445,-133.697"/>
<polygon fill="#8ca84c" stroke="#8ca84c" points="445,-118.104 449.5,-108.104 445,-113.104 445,-108.104 445,-108.104 445,-108.104 445,-113.104 440.5,-108.104 445,-118.104 445,-118.104"/>
</g>
<!-- Meeting -->
<g id="node10" class="node"><title>Meeting</title>
<ellipse fill="none" stroke="black" cx="445" cy="-255" rx="39.9464" ry="18"/>
<text text-anchor="middle" x="445" y="-251.3" font-family="Times,serif" font-size="14.00">Meeting</text>
</g>
<!-- Meeting&#45;&gt;MeetingOrganisationPerson -->
<g id="edge6" class="edge"><title>Meeting&#45;&gt;MeetingOrganisationPerson</title>
<path fill="none" stroke="#3ddfa1" d="M420.888,-233.688C412.942,-227.547 403.865,-221.089 395,-216 358.708,-195.167 343.972,-201.381 308,-180 239.811,-139.469 169.964,-77.185 133.923,-43.1884"/>
<ellipse fill="none" stroke="#3ddfa1" cx="424.13" cy="-236.254" rx="4.00002" ry="4.00002"/>
<polygon fill="#3ddfa1" stroke="#3ddfa1" points="133.59,-42.8713 129.442,-32.7202 129.966,-39.4266 126.341,-35.982 126.341,-35.982 126.341,-35.982 129.966,-39.4266 123.241,-39.2437 133.59,-42.8713 133.59,-42.8713"/>
</g>
<!-- Meeting&#45;&gt;Role -->
<g id="edge5" class="edge"><title>Meeting&#45;&gt;Role</title>
<path fill="none" stroke="#9d3712" d="M420.195,-231.651C404.059,-217.113 383.152,-198.275 367.32,-184.011"/>
<polygon fill="#9d3712" stroke="#9d3712" points="420.437,-231.869 424.855,-241.906 424.152,-235.216 427.867,-238.563 427.867,-238.563 427.867,-238.563 424.152,-235.216 430.879,-235.22 420.437,-231.869 420.437,-231.869"/>
<polygon fill="#9d3712" stroke="#9d3712" points="366.986,-183.71 362.569,-173.673 363.271,-180.363 359.556,-177.016 359.556,-177.016 359.556,-177.016 363.271,-180.363 356.544,-180.359 366.986,-183.71 366.986,-183.71"/>
</g>
<!-- Meeting&#45;&gt;MeetingPersonRole -->
<g id="edge3" class="edge"><title>Meeting&#45;&gt;MeetingPersonRole</title>
<path fill="none" stroke="#b7f224" d="M469.733,-233.753C477.592,-227.72 486.464,-221.307 495,-216 616.075,-140.723 769.786,-70.8151 844.754,-38.2292"/>
<ellipse fill="none" stroke="#b7f224" cx="466.551" cy="-236.238" rx="4.00002" ry="4.00002"/>
<polygon fill="#b7f224" stroke="#b7f224" points="844.756,-38.2286 855.72,-38.385 849.344,-36.242 853.932,-34.2554 853.932,-34.2554 853.932,-34.2554 849.344,-36.242 852.144,-30.1258 844.756,-38.2286 844.756,-38.2286"/>
</g>
<!-- Meeting&#45;&gt;Organisation -->
<g id="edge7" class="edge"><title>Meeting&#45;&gt;Organisation</title>
<path fill="none" stroke="#c4939a" d="M445,-226.549C445,-215.083 445,-201.792 445,-190.339"/>
<polygon fill="#c4939a" stroke="#c4939a" points="445,-226.884 440.5,-236.884 445,-231.884 445,-236.884 445,-236.884 445,-236.884 445,-231.884 449.5,-236.884 445,-226.884 445,-226.884"/>
<polygon fill="#c4939a" stroke="#c4939a" points="445,-190.04 449.5,-180.04 445,-185.04 445,-180.04 445,-180.04 445,-180.04 445,-185.04 440.5,-180.04 445,-190.04 445,-190.04"/>
</g>
<!-- Meeting&#45;&gt;Person -->
<g id="edge4" class="edge"><title>Meeting&#45;&gt;Person</title>
<path fill="none" stroke="#a76b7c" d="M471.505,-232.094C485.56,-218.703 501.447,-200.28 509,-180 514.584,-165.006 515.809,-158.479 509,-144 502.216,-129.574 489.365,-117.727 476.947,-108.921"/>
<polygon fill="#a76b7c" stroke="#a76b7c" points="471.333,-232.251 460.915,-235.673 467.642,-235.623 463.95,-238.996 463.95,-238.996 463.95,-238.996 467.642,-235.623 466.985,-242.318 471.333,-232.251 471.333,-232.251"/>
<polygon fill="#a76b7c" stroke="#a76b7c" points="476.833,-108.845 470.988,-99.5657 472.666,-106.08 468.5,-103.315 468.5,-103.315 468.5,-103.315 472.666,-106.08 466.012,-107.065 476.833,-108.845 476.833,-108.845"/>
</g>
<!-- HospitalityOrganisationPerson -->
<g id="node11" class="node"><title>HospitalityOrganisationPerson</title>
<ellipse fill="none" stroke="black" cx="672" cy="-18" rx="118.409" ry="18"/>
<text text-anchor="middle" x="672" y="-14.3" font-family="Times,serif" font-size="14.00">HospitalityOrganisationPerson</text>
</g>
<!-- Person&#45;&gt;Hospitality -->
<g id="edge12" class="edge"><title>Person&#45;&gt;Hospitality</title>
<path fill="none" stroke="#aca2fb" d="M410.256,-73.6069C385.567,-62.6691 352.367,-47.9599 326.643,-36.5634"/>
<polygon fill="#aca2fb" stroke="#aca2fb" points="410.472,-73.7026 417.792,-81.8676 415.043,-75.7279 419.615,-77.7533 419.615,-77.7533 419.615,-77.7533 415.043,-75.7279 421.437,-73.639 410.472,-73.7026 410.472,-73.7026"/>
<polygon fill="#aca2fb" stroke="#aca2fb" points="326.327,-36.4232 319.007,-28.2582 321.755,-34.3979 317.184,-32.3725 317.184,-32.3725 317.184,-32.3725 321.755,-34.3979 315.361,-36.4868 326.327,-36.4232 326.327,-36.4232"/>
</g>
<!-- Person&#45;&gt;HospitalityPersonRole -->
<g id="edge10" class="edge"><title>Person&#45;&gt;HospitalityPersonRole</title>
<path fill="none" stroke="#ac9dc2" d="M445,-63.6398C445,-58.0629 445,-52.1319 445,-46.4761"/>
<ellipse fill="none" stroke="#ac9dc2" cx="445" cy="-67.6966" rx="4" ry="4"/>
<polygon fill="#ac9dc2" stroke="#ac9dc2" points="445,-46.1043 449.5,-36.1043 445,-41.1043 445,-36.1043 445,-36.1043 445,-36.1043 445,-41.1043 440.5,-36.1044 445,-46.1043 445,-46.1043"/>
</g>
<!-- Person&#45;&gt;MeetingOrganisationPerson -->
<g id="edge9" class="edge"><title>Person&#45;&gt;MeetingOrganisationPerson</title>
<path fill="none" stroke="#65dcfe" d="M405.651,-80.8022C351.333,-69.4861 252.326,-48.8596 183.714,-34.5654"/>
<ellipse fill="none" stroke="#65dcfe" cx="409.776" cy="-81.6616" rx="4.00001" ry="4.00001"/>
<polygon fill="#65dcfe" stroke="#65dcfe" points="183.61,-34.5439 174.738,-28.0988 178.715,-33.524 173.82,-32.5042 173.82,-32.5042 173.82,-32.5042 178.715,-33.524 172.902,-36.9096 183.61,-34.5439 183.61,-34.5439"/>
</g>
<!-- Person&#45;&gt;MeetingPersonRole -->
<g id="edge8" class="edge"><title>Person&#45;&gt;MeetingPersonRole</title>
<path fill="none" stroke="#77afa2" d="M485.846,-83.3728C551.818,-74.1743 685.87,-55.0295 799,-36 806.083,-34.8086 813.465,-33.5152 820.828,-32.1916"/>
<ellipse fill="none" stroke="#77afa2" cx="481.724" cy="-83.9463" rx="4.00001" ry="4.00001"/>
<polygon fill="#77afa2" stroke="#77afa2" points="820.986,-32.163 831.629,-34.8023 825.905,-31.2689 830.825,-30.3748 830.825,-30.3748 830.825,-30.3748 825.905,-31.2689 830.02,-25.9473 820.986,-32.163 820.986,-32.163"/>
</g>
<!-- Person&#45;&gt;HospitalityOrganisationPerson -->
<g id="edge11" class="edge"><title>Person&#45;&gt;HospitalityOrganisationPerson</title>
<path fill="none" stroke="#800b71" d="M481.525,-77.7369C516.755,-66.8728 570.698,-50.2386 612.196,-37.4418"/>
<ellipse fill="none" stroke="#800b71" cx="477.572" cy="-78.9557" rx="4.00001" ry="4.00001"/>
<polygon fill="#800b71" stroke="#800b71" points="612.364,-37.3899 623.247,-38.7432 617.142,-35.9165 621.92,-34.443 621.92,-34.443 621.92,-34.443 617.142,-35.9165 620.594,-30.1428 612.364,-37.3899 612.364,-37.3899"/>
</g>
</g>
</svg>
