<?xml version="1.0" encoding="UTF-8" standalone="no"?>
<!DOCTYPE svg PUBLIC "-//W3C//DTD SVG 1.1//EN"
 "http://www.w3.org/Graphics/SVG/1.1/DTD/svg11.dtd">
<!-- Generated by graphviz version 2.36.0 (20140111.2315)
 -->
<!-- Title: models_diagram Pages: 1 -->
<svg width="655pt" height="244pt"
 viewBox="0.00 0.00 655.00 244.00" xmlns="http://www.w3.org/2000/svg" xmlns:xlink="http://www.w3.org/1999/xlink">
<g id="graph0" class="graph" transform="scale(1 1) rotate(0) translate(4 240)">
<title>models_diagram</title>
<polygon fill="none" stroke="none" points="-4,4 -4,-240 651,-240 651,4 -4,4"/>
<!-- _diagram_info -->
<g id="node1" class="node"><title>_diagram_info</title>
<text text-anchor="start" x="7" y="-214.6" font-family="Times,serif" font-size="13.00">Models diagram</text>
<text text-anchor="start" x="7" y="-200.6" font-family="Times,serif" font-size="13.00">Date: Sep 25 2016 &#45; 11:33</text>
<text text-anchor="start" x="7" y="-186.6" font-family="Times,serif" font-size="13.00">Migration version: 20160925103218</text>
<text text-anchor="start" x="7" y="-172.6" font-family="Times,serif" font-size="13.00">Generated by RailRoady 1.5.1</text>
<text text-anchor="start" x="7" y="-158.6" font-family="Times,serif" font-size="13.00">http://railroady.prestonlee.com</text>
</g>
<!-- ApplicationRecord -->
<g id="node2" class="node"><title>ApplicationRecord</title>
<ellipse fill="none" stroke="black" cx="308" cy="-190" rx="77.0154" ry="18"/>
<text text-anchor="middle" x="308" y="-186.3" font-family="Times,serif" font-size="14.00">ApplicationRecord</text>
</g>
<!-- Role -->
<g id="node3" class="node"><title>Role</title>
<path fill="none" stroke="black" d="M415,-144.5C415,-144.5 635,-144.5 635,-144.5 641,-144.5 647,-150.5 647,-156.5 647,-156.5 647,-223.5 647,-223.5 647,-229.5 641,-235.5 635,-235.5 635,-235.5 415,-235.5 415,-235.5 409,-235.5 403,-229.5 403,-223.5 403,-223.5 403,-156.5 403,-156.5 403,-150.5 409,-144.5 415,-144.5"/>
<text text-anchor="middle" x="525" y="-220.3" font-family="Times,serif" font-size="14.00">Role</text>
<polyline fill="none" stroke="black" points="403,-212.5 647,-212.5 "/>
<text text-anchor="start" x="411" y="-197.3" font-family="Times,serif" font-size="14.00">id :integer</text>
<text text-anchor="start" x="411" y="-182.3" font-family="Times,serif" font-size="14.00">name :character varying</text>
<text text-anchor="start" x="411" y="-167.3" font-family="Times,serif" font-size="14.00">created_at :timestamp without time zone</text>
<text text-anchor="start" x="411" y="-152.3" font-family="Times,serif" font-size="14.00">updated_at :timestamp without time zone</text>
</g>
<!-- Person -->
<g id="node4" class="node"><title>Person</title>
<path fill="none" stroke="black" d="M415,-1C415,-1 635,-1 635,-1 641,-1 647,-7 647,-13 647,-13 647,-95 647,-95 647,-101 641,-107 635,-107 635,-107 415,-107 415,-107 409,-107 403,-101 403,-95 403,-95 403,-13 403,-13 403,-7 409,-1 415,-1"/>
<text text-anchor="middle" x="525" y="-91.8" font-family="Times,serif" font-size="14.00">Person</text>
<polyline fill="none" stroke="black" points="403,-84 647,-84 "/>
<text text-anchor="start" x="411" y="-68.8" font-family="Times,serif" font-size="14.00">id :integer</text>
<text text-anchor="start" x="411" y="-53.8" font-family="Times,serif" font-size="14.00">name :character varying</text>
<text text-anchor="start" x="411" y="-38.8" font-family="Times,serif" font-size="14.00">wikipedia_entry :character varying</text>
<text text-anchor="start" x="411" y="-23.8" font-family="Times,serif" font-size="14.00">created_at :timestamp without time zone</text>
<text text-anchor="start" x="411" y="-8.8" font-family="Times,serif" font-size="14.00">updated_at :timestamp without time zone</text>
</g>
<!-- Role&#45;&gt;Person -->
<g id="edge1" class="edge"><title>Role&#45;&gt;Person</title>
<path fill="none" stroke="#32132a" d="M525,-134.146C525,-128.605 525,-122.949 525,-117.337"/>
<polygon fill="#32132a" stroke="#32132a" points="525,-134.38 520.5,-144.38 525,-139.38 525,-144.38 525,-144.38 525,-144.38 525,-139.38 529.5,-144.38 525,-134.38 525,-134.38"/>
<polygon fill="#32132a" stroke="#32132a" points="525,-117.318 529.5,-107.318 525,-112.318 525,-107.318 525,-107.318 525,-107.318 525,-112.318 520.5,-107.318 525,-117.318 525,-117.318"/>
</g>
</g>
</svg>
