<?xml version="1.0" encoding="UTF-8" standalone="no"?>
<!DOCTYPE svg PUBLIC "-//W3C//DTD SVG 1.1//EN"
 "http://www.w3.org/Graphics/SVG/1.1/DTD/svg11.dtd">
<!-- Generated by graphviz version 2.36.0 (20140111.2315)
 -->
<!-- Title: models_diagram Pages: 1 -->
<svg width="473pt" height="158pt"
 viewBox="0.00 0.00 473.00 158.00" xmlns="http://www.w3.org/2000/svg" xmlns:xlink="http://www.w3.org/1999/xlink">
<g id="graph0" class="graph" transform="scale(1 1) rotate(0) translate(4 154)">
<title>models_diagram</title>
<polygon fill="none" stroke="none" points="-4,4 -4,-154 469,-154 469,4 -4,4"/>
<!-- _diagram_info -->
<g id="node1" class="node"><title>_diagram_info</title>
<text text-anchor="start" x="7" y="-135.6" font-family="Times,serif" font-size="13.00">Models diagram</text>
<text text-anchor="start" x="7" y="-121.6" font-family="Times,serif" font-size="13.00">Date: Sep 25 2016 &#45; 11:34</text>
<text text-anchor="start" x="7" y="-107.6" font-family="Times,serif" font-size="13.00">Migration version: 20160925103218</text>
<text text-anchor="start" x="7" y="-93.6" font-family="Times,serif" font-size="13.00">Generated by RailRoady 1.5.1</text>
<text text-anchor="start" x="7" y="-79.6" font-family="Times,serif" font-size="13.00">http://railroady.prestonlee.com</text>
</g>
<!-- ApplicationRecord -->
<g id="node2" class="node"><title>ApplicationRecord</title>
<ellipse fill="none" stroke="black" cx="308" cy="-111" rx="77.0154" ry="18"/>
<text text-anchor="middle" x="308" y="-107.3" font-family="Times,serif" font-size="14.00">ApplicationRecord</text>
</g>
<!-- Role -->
<g id="node3" class="node"><title>Role</title>
<ellipse fill="none" stroke="black" cx="431" cy="-111" rx="26.949" ry="18"/>
<text text-anchor="middle" x="431" y="-107.3" font-family="Times,serif" font-size="14.00">Role</text>
</g>
<!-- Person -->
<g id="node4" class="node"><title>Person</title>
<ellipse fill="none" stroke="black" cx="431" cy="-18" rx="34.1708" ry="18"/>
<text text-anchor="middle" x="431" y="-14.3" font-family="Times,serif" font-size="14.00">Person</text>
</g>
<!-- Role&#45;&gt;Person -->
<g id="edge1" class="edge"><title>Role&#45;&gt;Person</title>
<path fill="none" stroke="#a65737" d="M431,-82.5485C431,-71.0829 431,-57.7923 431,-46.3387"/>
<polygon fill="#a65737" stroke="#a65737" points="431,-82.8836 426.5,-92.8836 431,-87.8836 431,-92.8836 431,-92.8836 431,-92.8836 431,-87.8836 435.5,-92.8836 431,-82.8836 431,-82.8836"/>
<polygon fill="#a65737" stroke="#a65737" points="431,-46.0397 435.5,-36.0396 431,-41.0397 431,-36.0397 431,-36.0397 431,-36.0397 431,-41.0397 426.5,-36.0397 431,-46.0397 431,-46.0397"/>
</g>
</g>
</svg>
